<mxfile host="65bd71144e">
    <diagram id="SdK1Na14MWqlP-oNMI8d" name="Page-1">
        <mxGraphModel dx="832" dy="452" grid="1" gridSize="10" guides="1" tooltips="1" connect="1" arrows="1" fold="1" page="1" pageScale="1" pageWidth="850" pageHeight="1100" math="0" shadow="0">
            <root>
                <mxCell id="0"/>
                <mxCell id="1" parent="0"/>
                <mxCell id="71" value="" style="html=1;labelBackgroundColor=#ffffff;startArrow=classic;startFill=1;startSize=6;endArrow=classic;endFill=1;endSize=6;jettySize=auto;orthogonalLoop=1;strokeWidth=1;dashed=1;fontSize=14;rounded=1;fontFamily=Georgia;entryX=0;entryY=0.6;entryDx=0;entryDy=0;entryPerimeter=0;exitX=1;exitY=0.5;exitDx=0;exitDy=0;exitPerimeter=0;" edge="1" parent="1" source="16" target="19">
                    <mxGeometry width="60" height="60" relative="1" as="geometry">
                        <mxPoint x="840" y="450" as="sourcePoint"/>
                        <mxPoint x="900" y="390" as="targetPoint"/>
                    </mxGeometry>
                </mxCell>
                <mxCell id="54" value="Amazon Route 53" style="sketch=0;outlineConnect=0;fontColor=#232F3E;gradientColor=none;strokeColor=#ffffff;fillColor=#232F3E;dashed=0;verticalLabelPosition=middle;verticalAlign=bottom;align=center;html=1;whiteSpace=wrap;fontSize=10;fontStyle=1;spacing=3;shape=mxgraph.aws4.productIcon;prIcon=mxgraph.aws4.route_53;fontFamily=Georgia;" vertex="1" parent="1">
                    <mxGeometry x="900" y="328.9" width="80" height="110" as="geometry"/>
                </mxCell>
                <mxCell id="43" value="" style="group" vertex="1" connectable="0" parent="1">
                    <mxGeometry x="470" y="300" width="60" height="66.92999999999998" as="geometry"/>
                </mxCell>
                <mxCell id="41" value="" style="sketch=0;outlineConnect=0;fontColor=#232F3E;gradientColor=none;fillColor=#3F8624;strokeColor=none;dashed=0;verticalLabelPosition=bottom;verticalAlign=top;align=center;html=1;fontSize=12;fontStyle=0;aspect=fixed;pointerEvents=1;shape=mxgraph.aws4.http_protocol;fontFamily=Georgia;" vertex="1" parent="43">
                    <mxGeometry x="7.970000000000027" width="44.06" height="44.06" as="geometry"/>
                </mxCell>
                <mxCell id="42" value="&lt;b&gt;8080&lt;/b&gt;" style="text;strokeColor=none;align=center;fillColor=none;html=1;verticalAlign=middle;whiteSpace=wrap;rounded=0;dashed=1;fontFamily=Georgia;fontSize=12;" vertex="1" parent="43">
                    <mxGeometry y="44.059999999999974" width="60" height="22.87" as="geometry"/>
                </mxCell>
                <mxCell id="44" value="" style="group" vertex="1" connectable="0" parent="1">
                    <mxGeometry x="260" y="224.25" width="177.49" height="255.75" as="geometry"/>
                </mxCell>
                <mxCell id="4" value="" style="outlineConnect=0;dashed=0;verticalLabelPosition=bottom;verticalAlign=top;align=center;html=1;shape=mxgraph.aws3.application_load_balancer;fillColor=#F58534;gradientColor=none;" vertex="1" parent="44">
                    <mxGeometry x="56.42495736906212" y="55.12785291631445" width="59.66777101096225" height="62.26204564666103" as="geometry"/>
                </mxCell>
                <mxCell id="5" value="" style="rounded=1;arcSize=10;dashed=1;strokeColor=#ff0000;fillColor=none;gradientColor=none;dashPattern=8 4;strokeWidth=2;fontFamily=Georgia;fontSize=12;" vertex="1" parent="44">
                    <mxGeometry width="177.49" height="255.75" as="geometry"/>
                </mxCell>
                <mxCell id="7" value="" style="sketch=0;aspect=fixed;html=1;points=[];align=center;image;fontSize=12;image=img/lib/mscae/Certificate.svg;dashed=1;" vertex="1" parent="44">
                    <mxGeometry x="13.187442143727163" y="91.44737954353339" width="43.23751522533496" height="36.31951278928137" as="geometry"/>
                </mxCell>
                <mxCell id="10" value="&lt;span style=&quot;&quot;&gt;Application Load Balancer&lt;/span&gt;" style="text;strokeColor=none;align=center;fillColor=none;html=1;verticalAlign=middle;whiteSpace=wrap;rounded=0;dashed=1;fontFamily=Georgia;fontSize=12;" vertex="1" parent="44">
                    <mxGeometry x="60.31633373934227" y="134.68491124260353" width="51.88501827040195" height="25.942519019442095" as="geometry"/>
                </mxCell>
                <mxCell id="12" value="Security Group" style="text;strokeColor=none;align=center;fillColor=none;html=1;verticalAlign=middle;whiteSpace=wrap;rounded=0;dashed=1;fontFamily=Georgia;fontSize=12;" vertex="1" parent="44">
                    <mxGeometry x="24.913456272838005" y="221.15997464074385" width="127.65443995127895" height="34.590025359256124" as="geometry"/>
                </mxCell>
                <mxCell id="45" value="" style="group" vertex="1" connectable="0" parent="1">
                    <mxGeometry x="560" y="555" width="191.37" height="275.75" as="geometry"/>
                </mxCell>
                <mxCell id="23" value="" style="rounded=1;arcSize=10;dashed=1;strokeColor=#ff0000;fillColor=none;gradientColor=none;dashPattern=8 4;strokeWidth=2;fontFamily=Georgia;fontSize=12;" vertex="1" parent="45">
                    <mxGeometry width="191.37" height="275.75" as="geometry"/>
                </mxCell>
                <mxCell id="25" value="" style="outlineConnect=0;dashed=0;verticalLabelPosition=bottom;verticalAlign=top;align=center;html=1;shape=mxgraph.aws3.instances;fillColor=#F58534;gradientColor=none;fontFamily=Georgia;fontSize=12;" vertex="1" parent="45">
                    <mxGeometry x="106.11361607795371" y="5.26627218934911" width="55.94250913520097" height="58.739644970414204" as="geometry"/>
                </mxCell>
                <mxCell id="26" value="" style="outlineConnect=0;dashed=0;verticalLabelPosition=bottom;verticalAlign=top;align=center;html=1;shape=mxgraph.aws3.instances;fillColor=#F58534;gradientColor=none;fontFamily=Georgia;fontSize=12;" vertex="1" parent="45">
                    <mxGeometry x="114.56093495736906" y="126.13008453085376" width="55.94250913520097" height="58.739644970414204" as="geometry"/>
                </mxCell>
                <mxCell id="27" value="" style="outlineConnect=0;dashed=0;verticalLabelPosition=bottom;verticalAlign=top;align=center;html=1;shape=mxgraph.aws3.instances;fillColor=#F58534;gradientColor=none;fontFamily=Georgia;fontSize=12;" vertex="1" parent="45">
                    <mxGeometry x="12.23276199756395" y="79.51131868131867" width="55.94250913520097" height="58.739644970414204" as="geometry"/>
                </mxCell>
                <mxCell id="35" value="Memcache Instance" style="text;strokeColor=none;align=center;fillColor=none;html=1;verticalAlign=middle;whiteSpace=wrap;rounded=0;dashed=1;fontFamily=Georgia;fontSize=12;" vertex="1" parent="45">
                    <mxGeometry x="79.01879415347138" y="64.00591715976331" width="100.57530767356882" height="27.97125950972105" as="geometry"/>
                </mxCell>
                <mxCell id="36" value="RabbitMQ Instance" style="text;strokeColor=none;align=center;fillColor=none;html=1;verticalAlign=middle;whiteSpace=wrap;rounded=0;dashed=1;fontFamily=Georgia;fontSize=12;" vertex="1" parent="45">
                    <mxGeometry x="12.23276199756395" y="141.51427726120033" width="55.94250913520097" height="27.97125950972105" as="geometry"/>
                </mxCell>
                <mxCell id="37" value="MySQL Instance" style="text;strokeColor=none;align=center;fillColor=none;html=1;verticalAlign=middle;whiteSpace=wrap;rounded=0;dashed=1;fontFamily=Georgia;fontSize=12;" vertex="1" parent="45">
                    <mxGeometry x="82.80423727161998" y="184.86972950126795" width="102.56126674786844" height="27.97125950972105" as="geometry"/>
                </mxCell>
                <mxCell id="24" value="Security Group" style="text;strokeColor=none;align=center;fillColor=none;html=1;verticalAlign=middle;whiteSpace=wrap;rounded=0;dashed=1;fontFamily=Georgia;fontSize=12;" vertex="1" parent="45">
                    <mxGeometry x="26.861728136419003" y="238.45375316990703" width="137.63721997563945" height="37.295012679628066" as="geometry"/>
                </mxCell>
                <mxCell id="65" value="" style="html=1;labelBackgroundColor=#ffffff;startArrow=classic;startFill=1;startSize=6;endArrow=classic;endFill=1;endSize=6;jettySize=auto;orthogonalLoop=1;strokeWidth=1;dashed=1;fontSize=14;fontFamily=Georgia;" edge="1" parent="45">
                    <mxGeometry width="60" height="60" relative="1" as="geometry">
                        <mxPoint x="57.110000000000014" y="84" as="sourcePoint"/>
                        <mxPoint x="113.1136160779538" y="47.744209917332455" as="targetPoint"/>
                    </mxGeometry>
                </mxCell>
                <mxCell id="66" value="" style="html=1;labelBackgroundColor=#ffffff;startArrow=classic;startFill=1;startSize=6;endArrow=classic;endFill=1;endSize=6;jettySize=auto;orthogonalLoop=1;strokeWidth=1;dashed=1;fontSize=14;fontFamily=Georgia;entryX=-0.046;entryY=0.321;entryDx=0;entryDy=0;entryPerimeter=0;" edge="1" parent="45" source="27" target="26">
                    <mxGeometry width="60" height="60" relative="1" as="geometry">
                        <mxPoint x="50.000000000000114" y="184.87" as="sourcePoint"/>
                        <mxPoint x="106.00361607795378" y="148.61420991733246" as="targetPoint"/>
                    </mxGeometry>
                </mxCell>
                <mxCell id="67" value="" style="html=1;labelBackgroundColor=#ffffff;startArrow=classic;startFill=1;startSize=6;endArrow=classic;endFill=1;endSize=6;jettySize=auto;orthogonalLoop=1;strokeWidth=1;dashed=1;fontSize=14;fontFamily=Georgia;entryX=0.666;entryY=-0.143;entryDx=0;entryDy=0;entryPerimeter=0;" edge="1" parent="45" source="26" target="35">
                    <mxGeometry width="60" height="60" relative="1" as="geometry">
                        <mxPoint x="106.05000000000018" y="115.76999999999998" as="sourcePoint"/>
                        <mxPoint x="162.05361607795385" y="79.51420991733244" as="targetPoint"/>
                    </mxGeometry>
                </mxCell>
                <mxCell id="46" value="" style="group" vertex="1" connectable="0" parent="1">
                    <mxGeometry x="50" y="310" width="60" height="80" as="geometry"/>
                </mxCell>
                <mxCell id="2" value="" style="shape=image;verticalLabelPosition=bottom;verticalAlign=top;imageAspect=0;aspect=fixed;image=data:image/png,iVBORw0KGgoAAAANSUhEUgAAAgAAAAIACAYAAAD0eNT6AAAACXBIWXMAAAsTAAALEwEAmpwYAAAgAElEQVR4nO3dCXxV9Z33cbV2pntta+szT6fLTH26sKoJoEIIIkgCCQlLEIGbBAJh3wlbknPYs5xzElHUoqXWXVNFXEAgJ4Scm5wLlq6j7Tx92lkcp7ZPn3Zat1oRznNOUAeVJcu993eWz+f1er9sOzNtR27+33Nv7j33gguIiIiIiIiIiIiIiIiIiIiIiIiIiIiIiIiIiIiIiIiIiIiIiIiIiIiIiIiIiIiIiIiIiIiIiIiIiIiIiIiIiIiIiIiIiIiIiIiIiIiIiIiIiIiIiIiIiIiIiIiIiIiIiIiIiIiIiIiIiIiIiIiIiIiIiIiIiIiIiIiIiIiIiIiIiIiIiIiIiIiIiIiIiIiIiIiIiIiIiIiIiIiIiIiIiIiIiIiIiIiIiIgoTQ0YPePjGXmxL2eMmX7VoNxYZuaY2ChPRk5srKvobWPf+dc7/3dyYld6/zfe/630f38iIiJ6X/3HTfuMN9gZOcWT3fGuyMgtvi0zt3hvZm7sp+6ov5iRG/uL+8+d3vD+Pbx/L+/f0/v3dv+zdmTmFK/y/jO9/+yBBSWXSP99ICIiCmeqetHgnOl9MnNmTHVHuMYd46fdYX6ht+OeNDnF/9753yknts3773jl2Ni33P/WF0r/bSMiIgpUGXnlH3PHdJg7rktdTe7A/l585Lv7ykFO7OWM3OJm90JlQ+evHNz/n6T/vhIREfmuzHEz/9EbfG803WfTb0gPeNIvCHKLj2fmxNozcorXXDWuJOMCXiEgIqIolpFR/uFBY0ty3EG80x3H/5Ae6PRfEMRecO10//+/ITs7+2LpPw8iIqLUpaoXnXppP7bdHb7fSo+wX7gXAn9w/37cm5kzI9+7MJL+YyIiIkpKmWOmf8MdOc0du99Jj63fuRdIL2XmxOqGjCv9X9J/bkRERN3u8pzFf9v5GfvO3+kXn5Qe1kDKiR3LzCkp5w2ERETk+4bkT73MHa7N7vD/P/EBDQvvUxA5xZsGjJ7xBek/XyIiovfkvWT99u/2XxcfzLDKKf6r916BQWOK+0r/eRMRUcQbNLbkiozc2BOZvMyfxguB2An37/nuK3OKB0j/+RMRUcTy7nZ36p3rsRPigxhdJ90/g6cG3zBjoPTjgYiIQt6QMSVfdZ993s/w+4d7EfCWdzHmfYGR9OODiIhCVufteXNjG/gdv3+d+rOJ1V47ftYnpR8vREQU/C70Ps536gtv5EcOXRH7T+/jg96Nl6QfPEREFMC8b+Bzn1V2yA8aeiiecUPJN6UfR0REFJC829F6X1oTxi/liZ7Ym96vBbwbM0k/roiIyMcNGhO7JiM39pz8cCGpcmI/yxg7Y4j044uIiHyW9410b7/J7y3xsUJKnPqzjdXyhUNERNSZ99E+77vqpQcK6RI7euUNMy6XftwREZFgGTkzytxReEV+lJBOGTmxl10l0o8/IiJKc9nZJR9xh+A70kME6QuB4nuvLir6qPTjkYiI0lDmDaVfysiNPSs9PvCHjNziHw0ePeMfpB+XRESUwjLGFl/nHvq/kx4d+Iv39c0ZOcU3SD8+iYgoBXl3h3MP+uPSYwN/6vxOgdziRdKPUyIiSl4Xeh/xkx4YBEVsO7cRJiIKeN6X+GTmFO+RHxUEiXvBuNt77Eg/fomIqAcNuj72Oe8z39JjgmDKyC22+4+b9hnpxzEREXWjIflTL3PH/6fSI4Jgcy8Cns8YM/3vpB/PRETUhbwDm/v5I1nci4B/Hpwz/e+lH9dERHSOMsfN/Ef3wP4X6dFAuGTkxH7NvQKIiHya9yyN8UeqZOTGXrhy7LSvSD/OiYjotAaMnvGFzNzYL6RHAuGWkRP7Je8JICLySRl5N13K7/yRNjmxn3mfMJF+3BMRRbrBOdM/5R7KPxQfBUSK910SfbKLPiH9+CciimQZGeUfzsyNHZAeA0RTRk5sX3Z29sXSPwdERJHLHf/bpUcAEZcTu0v654CIKFK5h+968cMf8OQUr5L+eSAiikQZObEi9+A9KX7wA56c2IlBOcUTpH8uiIhCXcYNJd/MyC3+s/ihD7zXK4NzpveR/vkgIgpl146f9cnMnOKf++CwBz7Au2VwxqjyT0v/nBARha0L3QP2MelDHjinnOI93mNV+oeFiKjXqap6sdrY+NVqw7hO0YyZiq5vVHX9TtduRTfaVE1/TtH0X7v+oOrGH10vu//6ibf/8R/df/xS5/9c13/sOqBqxoPuX291/73WqFrDFNUwBq/bvv3z5/vv4R6u68QPd6ALMnJjK8/3eD7Q0fEFs80e3NyeuNGMJ9a0WIlb3b8+2GLZB00r8eOWuP1rM26/5P5rf/S4//oJ919/+dQ/Tvyh839u2c+5/7zN/ee73f/dO1viiY3uP57ZHE+MaG1NfLW1tZWPKBJR11J37PiEN/TuuK9wfc8d6x+5A/5Xd8idVOu8gND0Q+5/5s3uf/Ystb5+gHvxcZH33+uqcSUZmbmxN6UPdqBrYm9m3FA82HvsNjU1faglfmSgO9Blru3ukLd2jng84aTBG64fuhcF32u2EivM9iPXHTjwk4/LnjJE5IvcZ/aXuIM/6dToGsfcsT+ejrHvhj+tr9UOXDN+5u/lD3Wg64ZPLP/D0wdbD7qD/+c0jX2XuBcfx03L/oH73+tm959PbG4+xnsWiKJSVUND31Mvv+uHfTj4HzChbJn4YQ70xKLKOvHB79IFQTxx2L0oWG1aR/gUA1HY8n6Hr+j6UtcPpQe9O+auVsQPcaA3bt31kPjId4/9vPvXDS3t7d+QPreIqId5v89X6o057pA+Kz3kPbG+pt65tqBM/AAHeuO6yfOcp5oP+2DYe+So994F3jdAFJBUTeunavq33RF9WXrEe6OQl/4REgvX10oPee9472OwEne0xI/2lT7fiOgMqbo+TNGMpxRNPyk93r21qHKjkzm2RPzgBpJhkPtY3nnfo/JDngRmPNFuxu186fOOiNyqtYZ8dzSPSY92slTVa87wibPFD20gmcZMW+zsb42LD3jyXhVIPNvSnhgrff4RRbLOZ/zejXh8MNrJNHVBhfhhDaTCum23yg93sl8RsOzEIavjeunzkCgSeR/jUzXjoPRQp8KaLbXOkHGl4gc1kArX5M9yHn36oPhop+RCIJ7Yf/Bw4lvS5yNRKFtbU/MZ91l/bbruzCchv3SJ+CENpNKcVZvFxzqFFwHHzbi9s7X12KXS5yVRaFI0LaZoxu+lBzqVllRv4o1/CD3vDYG7HtwtPtYpZSV+1xK3p0mfm0SBbn1Dw9+5w/+49DinmqLpzvVT5oofzkA6TCyr8H53Lj/UqX5FwLL3NsfjX5Y+R4kCl6rrs9WAf5a/q7jjH6ImeHcI7OmrAZ33EJgpfZ4SBaI1tbWf9r4yV3qU0/bs3zWyqFz8QAbSKa94WSReBTjt1YDH9tv2Z6XPVyLfpmracHf8X5Ae5XSas6pa/DAGJNx81/3iw5zei4DEvx2y7KHS5yyR71J1vVzV9DelBzmtNN0ZMXmO+EEMSBgbi9arAJ0XAae+fXCN9HlL5ItUVf2Iohl3i4+xxLP/iirxQxiQFLVXAd5lJe5/8tixj0mfv0Ridb7LP2Bf0ZtMo6bOEz+AAUmFZSvlx1juIuBZM5G4TPocJkp7qqb1cUfw36RHWMqiyk3ihy/gB6G/L8A5mHH7X7mDIEUqd/xHuCP4R+kRljQ2tkj84AX8oGSpKj7Ewq8E/KE5nhgmfS4TpbxqTctVNf116QGWtHLjNmeQDw5ewA+8uwM+8sQz8kMs642W9sR46fOZKGWpup7njv8b0gMsbXL5CvFDF/CT5aohPcDyLPuv7l8nSp/TRElP1RqmKLpxXHp8pVXX686142eJH7iAnwyfVO4cONwhP8LCTMt+syVuF0mf10RJy33mPz5yn/E/C278A5xZ450R/UjgGS4Cmq2OPOlzm6jXqZo20n3m/xfp4fWLG6YtED9oAT+aumC9+Pj6hWklXm+OJ0ZIn99EPa5a04Yomv6K9Oj6RcXmGr7yFzgL782Ajz51QHx8/cK9CHi5tf1opvQ5TtTt1MbGr6qa/lvp0fWTaQsrxA9ZwM+q6m4XH14/MeP2Sy0dHV+RPs+Jupy6ffun3PH/mfTg+s0IvvUPOKf80hXio+s/9vOtra2XSJ/rROdNVdWLFV1vlh5bv1mxcav44QoEwUN79vlgdH3nmaampg9Jn+9E50zVdV16bP3opgW8/A90xfqaW6XH1q+2Sp/vRGetur6hQNH0k9Jj60cjJvPyP9AVecXLpIfWl0zLPtnCjYLIj1XVNX7DHbqXpYfWj1Z77/73wcEKBMWjTx8UH1w/MuOJ/2ppb/+a9HlP9G7lO3d+2B26Z6WH1q9Kl60TP1CBINm2fZf42PqVadk/OHbs2Ielz32izhTNqJEeWT/jm/+A7on8NwSe3wbpc5/I+73/UFXT35IeWb/y7v1/df5M8QMVCJKhBWXOwcPt0iPrW2Y8cby5vf0a6fOfIpyq7vyYO3K/kh5ZP1u4foP4YQoE0V33PyY+tP5m/7K1tfUj0jtAEU3RjDrpgfW7m+bz8T+gJ/g4YJcuArZI7wBFMLW+fgDf8Hd+Y/jyH6BHpi2s9MHA+pv3q4DW9vYrpPeAIpSqqhepvOv/vBSN3/8DPTW0cLb3jnfxkfU9K2E7jnOh9C5QRFI0Y6b0uAbBMnWL+CEKBNl9jz4tP7ABYFqJGdK7QBFI3bHjE4pu/Kf0uAZByVI+/w/0xpab7xQf10CwEi8eOPCTj0vvA4U8VTO2SA9rUBTOWiZ+gAJBNn/tNvlxDQjTslXpfaAQp9bX/w9F11+THtagGDllrvgBCgRZ4axV4sMaFGY88YplWZ+X3gkKae74N0qPalB4bwAcPK5E/AAFguya/Fm8EbB76qR3gkLY+oaGv1M1/XXpYQ2KlRu2ih+eQBg8vOcZ6VENEPtVM5G4THovKGS5z/63S49qkMypqBI/OIEwuPmu+30wrAFi2br0XlCIWltT8xl31F6VHtUgmbZgtfjBCYTB+pod8qMaIKaVeLm1tfUS6d2gkKTq+nrpQQ0aPgEAJMf8dTXioxo4bXaF9G5QCCrfufPDim78h/SgBs0N3AIYSIqp89bLD2rQWIkXm5577m+k94MCnqLr06XHNIiyCmeLH5xAGNxw0yL5QQ0g00pMld4PCniqph+WHtOgUep1J3MsHwEEkmHwuFKnua1DfFCDxownTOn9oABXWV//NUXTT0oPatCs3lIjfmgCYbJ7b7P4oAaNadknW9rbvya9IxTQFM2okx7TIFqm8CVAQDLd+/0nxQc1iNyLgM3SO0IBrPMrfzX9N9JjGkQL1m0QPzCBMLnjnibxMQ0m+wW+Kpi6XbVhZEsPaVDNXslNgIBkMr59nw/GNKDaOq6V3hMKWKpm7JAe0qAqXrpW/MAEwmRTI18L3GNWolF6TyhA8fJ/79y0oEL8wATCZO22W+SHNKDMuP0fquNcJL0rFJCq6xuvkR7RIJsyd6X4gQmEycqNDeJDGmTNHR2DpHeFApKi6xulRzTIJs9ZIX5gAmGyTNHERzTgqqV3hQKSoulHpUc0yCbO5nsAgGRaVFknPaCBZsYT7dK7QgFI1fVLFd04IT2iQVZYxgUAkEzz1mwTH9GAe2u/bX9Wel/I56maNll6QIOuoHSp+IEJhMnsis3SAxp4ptVRKL0v5PPcAWuQHtCgyy9ZIn5gAmEya+Um8QENOjOeqJfeF/J57oAdkR7QoCuYxSsAQDKVV2wVH9Cgcy8AOqT3hXzccsP4qKIbf5Ue0KCbwHsAgKSav65GfEBD4I3W1taPSO8M+TTVMK6WHs8wmDSbjwECybS4ql56PEPBbLMHS+8M+TTFMOZKj2cYFJVzAQAk03JVFx/PMDDjdpn0zpBP4/7/yTFl3irxAxMIk1WbGsXHMxQs+2bpnSGfpuhGm/R4hsH0havFD0wgTKrqbpMfzxAw43aL9M6QT1M1/f9Kj2cYlC5fJ35gAmFSc+su8fEMA/cC4CXpnSEftlLTPi49nGFRvloRPzCBMLnlOw+Kj2cYmJZ98sljxz4mvTfks1RN6yc9nGGxqHKj+IEJhMl3HtwtPp5h0drR8U3pvSGfVa1p46SHMyxWbNgqfmACYfLQ43vFhzMsmi07R3pvyGcpuj5fejjDYu22OvEDEwiTJw8eEh/OsDDj9lzpvSGf5V4AqNLDGSZD8krFD00gDIYWlImPZshUSe8N+SxVM26RHs0wGTG5XPzgBMIgr3iZ9GCGi5VolN4b8lmKrj8gPZphMja2SPzgBMKgeKkiP5ohYsbte6X3hnyWounPSI9mmEyaw+2AgWRYpmjioxkmpmXvld4b8lmqrlvSoxkmsSVrxA9OIAw2GjvFRzNULLtVem/IZ7mjdUR6NMNkwboN4gcnEAY773tUfjTDxErY0ntDPkvVjB9Jj2aYrN1aK35wAmHwxH4+AphkP5TeG/JZim48Lz2aYXNtwSzxwxMIsusmz5Mey9AxLfs56b0hn6Vq+s+lBzNscqYtED9AgSC7aUGl+GCGj/1z6b0hn+VeAPxEejDDpqh8pfgBCgTZctXwwWCGi2klfiy9N+Sz3MF6Vnoww2bOqmrxAxQIssY77xcfzLAx4/YR6b0hn6Xqerv0YIbN6q014gcoEGS79zWLD2bYmPFEm/TekM9SdL1ZejDDaNiEMvFDFAii0VMXio9lGJmWfUB6b8hnqZrRJD2WYZRfukT8IAWCaE7FFvGxDCf7Iem9IZ/lXgDcLj2WYVSydJ34QQoE0dbt3/HBWIaQlbhVem/IZym6vll6LMNo5Yat4gcpEEQP73lGfizDaYP03pDPUuuNZdJjGVZZhbPFD1MgSEbftEh6JEPrkJVYIr035LNUTZssPZRhNaFsufiBCgTJ4qp68aEMKzNuT5DeG/JZakNDpvRQhtW8NYr4gQoEyY7vPiQ+lGHVfLjjSum9IZ+l6vql0kMZVlV1mjNoXIn4oQoEwZC8mc6+Fkt8KMMqHo9/RnpvyIcpmv6K9FiGVe70heIHKxAE0xdViY9keNl/kt4Z8mnuUB2THsqwmrWiUvxgBYKg/vZ7fDCU4cRtgOmsKZpxt/RQhtX62npn8Fh+DQCcy9V5pc5es018KEPsLumdIZ+m6voK6aEMs7GxReIHLOBnJUtU6YEMNT4CSGdNrW8YJT2SYVa2kl8DAOeif/te8ZEMM7P9yHXSO0M+be22Wz+naPpJ6aEMq8raemdIXqn4IQv40dCCMt79n0qWfYJPANA5UzTjF9JDGWbcFAg4s4WVtfIjGWKmZT8nvS/k89wLgF3SIxlmS5XN4gct4Ef3fP9J8ZEMMzNu75TeF/J57gVAmfRIht3Iornihy3gJ/kly8UHMvzsYul9IZ+nGsbl0gMZdnxFMPBeW26+ywcDGW6trYmvSu8LBSB3pH4lPZJh5t0a+Jr8meKHLuAHwyfM4c1/KWZaiV9I7woFJFUzdkiPZNhNmbdK/OAF/KBic6P4QIaelWiU3hUKSNVaQ770QIbd2q213BkQked9LHb3vmb5gQy5ZsvOkd4VCkiquvNj7ki9Kj2SYVcwa6n4AQxImrdmm/g4hp1pJV62bfuj0rtCAUrVjCbpgQy7FeoWJ5NXARBRg9zH/gO794oPZOhZiful94QClmIYRdIDGQXjiheLH8SAhFkrNsqPYwQcajtSIL0nFLD4NUB6rNyw1Rnkg8MYSCfv2f9De/aJj2PY8fI/9ThF0++THsgoyC9dIn4gA+k0p2KL+DhGgRm3vyu9IxTQVE0bIT2OUbBq07bOZ0TShzKQDt5j/eE9z4iPYxQcsuyh0jtCAY4vB0qPiWXLxA9mIB0WVdaJD2MUmFbinx3HuVB6QyjAqbq+Wnoco2Dttjrn6ny+KhjhllU423ny4CHxcYyGI6uk94MCnmoYn1V5M2BaxBavET+ggVTaaOz0wTBGgGW/1nz06Oek94NCkKLrd0iPYxRUa7qTPWmO+CENpMLY2BLn4OEO+XGMAitxq/RuUEhSdf3rim6ckB7IKJi3RhU/qIFUuP17j8gPYxRY9olW275cejcoRLkXAU9Kj2NU5JVwcyCES9nKzfLDGBGmZT8mvRcUsqp1PUPR9JPS4xgF3hsC+bpghEXWxDnOE/tbxIcxCtzxP9na3n6F9F5QCFM04wnpcYyKmcsrxQ9uIBnqbrtbfBijwozbj0rvBIW0Kl2/klcB0sP9++yMmTZf/PAGemPq/HXes1LxYYwC79l/S/zIQOmdoBCn6Poj0uMYFas31zhX86sABNSwwtnOo08fFB/GqDCtxAPS+0Ahr1LXv+ReBLwmPY5RUbaySvwgB3pC//a94qMYFe74v97S0fEV6X2gCKTq+jbpYYyS8TP5siAEy9zVfNlPmm2Q3gWKSBV1dZ9UdOMl6WGMispazcmaMFv8UAe6YvRNi5x9Zpv0IEaHlXjxwIGffFx6FyhCqZoxVXoYo2RJ9SZnMN8YCJ+7Oq/U+d4jT8iPYrRMlN4DimB8LDC9SpetEz/ggXOp2fFd6TGMFDNuPy29AxTR1Nqbv6xo+ivSwxglhbP42mD4U3nFVvFBjBLTSrzc2nrk76V3gCKcouvzpUcxSqrrdef6KXPFD3vgdONLlzv7W+PioxgpVmKO9PlPUc9xLlQ04ynpYYwS7/4A1xaUiR/6gGdk0Xxn995m+UGMEDNu75E++ok6UzXtC6qm/1Z6GKNkmbrFGZJXKn74I9quGT+LN/2lm5X4nZlIXCZ97hO9W7XWkM9tgtNr/toNTiafDICQQe5j75bvPig/iFFi2ScOtXWMkT7viT6Qohk10qMYNcVL+GQAZGxqvFN+EKNng/Q5T3TGVFW9SNH1A9KjGDU3zlslPgaIljVbtksPYRQ1NzU1fUj6nCc6a+u2b/+8exHw79KjGDVT5q4UHwVEw9JqTXoII8eM2//afPTo56TPd6LzVtXQ0NcdpT9Jj2KUeF8fPKFsufg4INzmrtnK1/umm2X/ufmw3V/6XCfqctW6PkbRjePSwxgp7kVAfilfHITUmL1qE+OfZu7f7zfNeGK09HlO1O24SZDMRQB3C0Syza7Y7DS3dYgPYtSYbfZs6XOcqMe5FwHV4qMYMd6vA4rKV4iPBsJhUWUdz/xlrJU+v4l6naIZddKjGDXeRcCUebwxEL2zalOj9AhGk5VolD63iZKTd7tgXb9DehSjaPqiNdwsCN3m3eRH0e6QH8IIMuP2bY57Zkof20TJ69RFQKP0IEZR+WrFGTyO2waja67OK3WMb98nPoRRxPhTqFM1Y5P0IEbR0upNzrUFs8THBf6WNXGO850HHhMfwmiya6XPZ6KU514EVPG9Aem3atM2Z/jE2eIjA38aG1viPPLEfh8MYbSYln3SjCfWSJ/LRGlLNYxiRTf+Kj2KUVNVpzl5JYvFxwb+EluiOE+bbeJjGDmW/VfTSsyQPo+J0p6qaSNV7hiYdt4nBGYs5s2BOPVmv7XbbuFjfgLc4X+Zb/ajSOdeBPRRNON/S49iFC1Yt6Hz+9ylRwgyRkwqd3be+33xIYwid/x/0drR8U3p85dIvIq6uk+qur5behCjaN22Wid3xkLxMUJ6TV2w3nl8X4v4EEbUU62trZdIn7tEvsn7KmFVMxRV09+SHsWo8X4lULJ0nTN4HL8SCDvvI37V9bfzkr8AM5447v59X8/H/IjOUrWmDXFH6VfSoxhFy9UtzojJ5WkdpAwfjGJU5BUvc+5/9CnxIYwi00r8W3M8MUz6fCXyfWpj4yWqZjwsPYiRo+mvV9boCzNyitdk5sbekB4sJEvsTVftU+bhpe4QvS49hlHjPvN/sLn52Kelz1WiQFWtNeS7o/Si+DBGgKIZ8aq6xm+88/c+c9yMfu5oJOTHC73hXsx1DBpT3PedP9eW9vavmXG7pftDxq8Mus2yf+v+fSuSOT2JQpD3aoCiGzu5cVDK/EnR9aXeezA++DdfvSgjJ7Y4Myf2X9JDhm7KKf6j++e24IIz/Ll6v4M+FD9S7g7Un8VHMryamo8e/VxaDkmisFdZXz/KvQj49bvPWOWHM9DcZ/wnFU17quLWW//n+f7eX31D2Wczc2PbM3KLj4sPG84z/LET7rP+eweMnvGF8/25mrb9xRYrscd10geDGRa/bo3HRyXn1COKcKphXK5qxhJ3sPa5z1Jfkx7NUNL0F92LgV2KYRSp27d/6v1/Bhl5N12akRMr8kbF/evL4gOHc3Iv0l53/6yeyswpKb9y1KwPXNx5v4tuidtTTCuxyx3+//TBYIaQ/app2XtbLHux9yuX9JyWRCFovWF8sfMlaV1v52X/tF8MvOFeDDw1c2WlMiRv5taM3Niz3jNK6VFDD3X+2cWOXp1Xukmtv32ZGbfvdUfpNfmBjBr7efevG5rjz/6j9PlK5LvcZ/qf7fxuAHd8uA+AjJUbtzo3LaxwsifNkR8upMToqQudVZsanYcef8YHoxhBln3CjCfaXUvNROIy6XOXSKzOG//oep77LH+vohvHpQcwitZsre28AdDoqfPFxwnpNTa2rPM7AJqePCA/jBHUeVOguP30obYj41TH+eAbcInC2Jra2k+7w1/uPtv/hfQARtH62nqnbGWVkzN9IV8GhE6FM1c6mxp2Ok/s59bAMuxfe18H3Np67FLp85koJVXp+pXex/ncEXpVegSjaHHVJie/dIkziNv94iy8bwacsbi68wuCuFWwiDdavI8PtrdfI31eE/U+x7nw1Mv8Rlx6AKOoslZzZi6vdK5L8+19EXxjpi3u/M6AJw8ekh7FaLJsy/v1AN8bQIHL+/2+dxc/RdN/ID2CUbRM3eJMnL3MGTKuVHxIEGzelwfNWrGRrw2W87OWuF3c2tp6sfS5TnTO3OG/2H22P/P0G/YgParrTz3bHzllrvhoIJzGly53tt2yy9nfGpcexTFtgGkAAB5PSURBVMgxrcSvzLZEaVNT04ekz3mi9+Q94++8kYyu/7P0EEbNupo6Z8biNc7QwjLxgUA0ZE+c2/lxwsefMcWHMXrsf/Fu48yFAPmi6vqGAkU3/kl6CKOmYnONU1S+gpf5Icb79UB5xVbuKyDjZ2bczpc+/ymiqQ0NmaqmH5YewqhZsWHrqXfz+2AAAI/36QHvfQIP7N4rPYrRYyXslraOa6X3gCKS2tj4VVUzHuQ2vWke/o1bnYKZS/nsPnzrnY8R3vv9J+WHMUJMyz7pXgjc3xyPf1l6HyikLTeMj7rDv0HRjb9Ij2GUvDP8PONHULxzIXAPFwJpvhBIvO7+dUNra+tHpPeCQtTbH+njnf1p5P2OP79kCc/4EVidvxpYucl55In94uMYJd4nBpqtjjzp3aCAV6lpX+n8gh4fDGJUeO/qv3HeKmcwd+xDSAzJK3UWrq/lUwNpvxCwn+DXAtTt3v6innJ3kF6WHsSoqKyt7/w439X5M8UPbCAVrh1f1vnxwb1mm/g4RoZlv+Z9zwAfG6QupWpaP0XTE9KDGBWKa+aKSmdowSzxAxpIhxGT5zm1O+7m+wbSeiGQsFviR/tK7wv5NO8ufqpmVKma/qb0KEbFMmWLM3rqPPEDGZBQMHOls+vB3fLjGBWW/Vf3oms9rwbQe1IbGv6RL+xJnzVb6zrv1c87+xF179xD4LG9zfIDGRFm3D7SbB39uvTukHSOc6Gi6wtdr0mPYhQomu7Elqzl9/zA+wwtKHM2GDv5tUDa2K+2WIn5fNtgRFN1/VLe4Z8+y9UtzvU38kU9wLnkl65w7n5kjw8GMhrcC64DZiJxmfQeURqrNoxsVdNflB7FKKiq0zo/1sfn+YGu8X4t4H1scB+fFkjPRUDc/o+Wto7h0rtEKa6oqelD3t383PF/S3oYo2DeWoVv6QN66PobFzg77n5YfCAj4i3TshXVcS6S3ilKQWu33fo5d/z3S49iFFTWap1v8pM+QIEw8N4k+PTBw9IDGQ2WfehAR8cXpPeKkpha33iFO0z/Ij2MUbBg3QZnGM/6gaS6bvI8Z8d3H5IfyEiwX2ju6BgkvVuUhFRdL+ULfFLPu5Nf57N+ftcPpIz3asBTzbwakGqnvljILpbeL+phnb/v1/Va6WGMgqXKZmf4xNnihyMQBaOnLnR2PfS4+EhGgRm3t3PjoICl7tjxCUUznpAextDT9M779w/ii3uAtBo8rtRZu+0W7huQHs80Nx/7tPSuUReq1LR/UHTjn8THMeTWbKl1brhpvvhBCETZlHlrnd37uItg6tk/beno+Ir0vtE5UuvrB7jj/5/S4xh2c1crzjXczQ/whayJc5xbvvugD0Yy3My4/ZLZZl8lvXN0hqp1/XpF0/8sPY5h5t3Kl5v6AP7j3TxomaI5Bw93iA9lmJnxxCvNlp0jvXd0WqphzOBb/FJr7bY6J2faAvGDDsDZFc1d6zz+jCk+lKFm2X9tbrenS+8euSmattx9ZnpSeiDDbHHVJu7oBwTEiMlznZ33PSo/lCFmWvZJM55YKr1/kU7RjDXS4xh2sSVrOl9elD7UAHSd9ykB79sFpYcy/Oxa6R2MXt7X+GqGJj2OYVZdrzuFZdzOFwiyOas2O/tb4z4YylCrk57E6OSOv6oZt0sPZJit21bHR/yAkJg4p8LZs79FeiRDzYwnbnHcbZKex3B3avx3SA9kmC3fsMXJmsBd/YAwGTllvnNP0xPiQxlm3l0DuQhIYYpm1EkPZJiVr1Y6f3cofVgBSL5rx5c5t+zifgEpZSUapXcylLnjXyM9kGFWsnSdM8gHhxSA1PHe0Lu58S75oQwxM55okN7LUKVqxibpgQyrd2/u44PDCUB6eDcN4nsEUngRYNmq9G6GIkXXF0qPZFh57/QfX7pU/DACkH4zl23gEwKpZNnLpfcz0Hl3+FN044T0UIbR+tp6Z/RU3ukPRNmUuWudvWab/FiGkHezoBYrMVN6RwNZtdaQ747/cemhDKN122qdkUVzxQ8fAPIKZq50njjQKj6YYeReBLzZ0p4YK72ngapa1zPcoXpVeijDaPXWGid70hzxQweAf4yNLXF27+VrhVPCsl8z2+zB0rsaiNYbxhdVTX9ReijDaNWmrc6wCdzTH8AHjZ660Gl6cr/8YIaQGbd/0xyPf1l6X32dun37pxTd+Kn0UIbRcnWLM7RglvghA8C/rps8z3lg917xwQwn+/nW1tZLpHfWl6mqerGqGQelhzKMvLv7XTOe8QdwfiMmlTv3P/a0DwYzfMx4Yn9TU9OHpPfWd7njf7P0UIYR4w+gu7yLAF4JSNFFgGVr0nvrqxRNi0kPZRitUBl/AD3DRUAqdcyS3l1f1PmOf01/XXosw8Yb/2sZfwC9wEVAapjxxF8i/8mAddu3f553/Cffyo1bGX8ASTFi8lzn4T3PiI9m+NgvtLYeu1R6h0VSVfUiVTP2S49l2Hif888q5Ot8ASSP93XCjz590AejGS5mPGFG8k2B7vgr0mMZNmu31TnZk8rFDwsA4ZMzfbGzZ3+L+GiGjWklKqX3OK2pmjZC1fS3pAczTLx7+3N7XwCplFe8zHn64GHx0QwVyz5hxhOjpXc5Lam6fqk7/r+RHswwqXTHf9TUeeKHA4DwmzR7tbP/EN8imOSLgN+aicRl0vuc8hTNeEJ6MENF051xscXihwKA6Igtrnaa2zrkhzNEzLi9R3qfU5qi6/PFBzNkJs1ZIX4YAIiehetrxUczbA7Fj5RL73RKqmps/JZ7AfCa9GCGyfSFq8UPAQDRpWh3iI9mqFj2a60dHd+U3uuk1nmff914Vnoww2RORZWTObZE/AAAEF2D3DNIv+Me+eEMETNuHwnVRwNVXV8vPZhhsrhyozOY8QfgA1fnlTq7HnpcfDjDxLTs1dK7nZTc8f+moht/kR7NsFi9pYav9QXgK9kT5zqPPnVAfDhD5I2W+NG+0vvdq4qamj6kaPpR6dEMi8rOz/pzox8A/jO+dLnzzCFLejhDI/C/CnCf/a+QHs2wcC+knPzSJeI/5ABwNqXLN3gvX4uPZ1iY8cRS6R3vUZW6/iV3tF6RHs6wmDp/lfgPNwCcz7ptt4oPZ1iYVuJl07a/KL3n3U7RjMelRzMs5q5WeMc/gEDwPhlw666HxMczRJqk97xbVWtarvRohsWqTducq/NLxX+oAaCrvG8kbXqSNwUmS7PVkSe9611quWF8VNH0f5UezjCortedkVP4gh8AwZNfspzvDEgS00r8at++fX8rve/nTdWMKunhDIvCsmXiP8QA0FNzKraIj2dYmPHEGul9P2frbr75Mne4XpYezjCYubxS/IcXAHqrdsfd4uMZBt4bAtvajv2d9M6fNUXT75EezjBYsWGrM3gcb/oDEHzX5M9yHty9V3xAw8C9CNglvfNnrFrXMxTdOCE9nkHX+Xt/bvYDIETGFS9z9rfyfoBes+wTzYc7rpTe+w+kaoYpPZ5hMGnOcvEfVgBItmWKJj+g4fCM9N6/J/fZ/2jp4QyD+WtVPu8PIJS8+wPs+O5D0uMZDm1HRkrv/qkc50J3vI5Ij2fQrd1a61w7ni/5ARBeIyaVO48/Y8oPaPAdddztlZ7/CxTDKJIez6Dz7vOfM32h+A8nAKTajMXV0uMZCqbVUSi7/u4ViKIb/yQ9oEFXunyd+A8lAKQLHw1MxgWA/RPRVwF49t97qzfXOEPyuNUvgOgYWjjbeWxvs/iIBt2htiMFMuvf+exf/6H0gAaZ99J/Li/9A4igqfPX8dXBvfcjkVcBqusbCqQHNOhKlvHSP4Do2nbLLukBDTwznshN+wWA++z1qPSABtnqLbz0DyDahhaUObv38auAXl4AdKR1/KsNI1t6QINubGyx+A8fAEiL8amAXmtub78mbRcAqq4/KT2gQVa+ulr8hw4A/OKWXQ+Kj2iQmXH70XSN/9e553/PVdbWO0MLy8R/4ADAL0YWzXf2mm3iQxpgb7W0t38t5RcAiq7fIT2iQca9/gHgg5YquvSIBpoZT9yS0vFfU1v7aXfEXpUe0aBaUr3ZGeSDHzQA8BvvuwLuaXpCfEiDyr0AeGXfkSOfStkFgKoZS6RHNKgU16ip88R/yADArybOqeDeAL1hJean8AJAf056SINq1opK8R8uAPA7/Y575Ic0sOznU3JjIFXTRkiPaFBV1Wm88Q8AuuC6yfOcfbwhsMfM9iNZSb8AUHT9IekhDaop81aK/1ABQFBUbG4UH9KgMq3EA0kd/843/2n669JDGkQVm2ucweNKxH+gACAohuTNdJqe3C8+pkFkxhN/aW1tvSRpFwDus//50kMaVOOKueMfAHTXrBUbxcc0qMw2e3bSLgDcITsiPaRBtFTZ7GSO5dk/AHSX97HAux/aIz6mgWTZ8SSNv/516SENqjHT5ov/EAFAUBWVr5Ef06Bqb/9G7y8ANGOL9JAG0bw1qvgPDwAE3e3fe0R+TINpQxJeATB+KT2mgaPpzoiicvEfHAAIurziZdwcqAdMK/HPvRv/uoarxMc0gMq46Q8AJI1xx73igxpEzYft/j2+AFA0o0Z6TAPHffY/fOJs8R8YAAiLMdMWO81tHeKDGjSmZW/u+SsAuvEr8UENGJ79A0Dy8SpAT9j/u0fjX2UYA6XHNHDcZ//Zk+aI/6AAQNh4rwLwXoDuM60jfbr/7F8zqsQHNWDKVvLsHwBSRf82rwJ0+wIgnljT7QsARdOPSg9qoHQ+++ed/wCQKrwK0APdvSmQqmlfUHTjhPioBsjsiirxHw4ACLvGO++XH9Vgeau19dilXb8A0PVZ0oMaNCOnzBX/wQCAsCuctUp6UIPHOhLrxisAxsPSgxokC9dvEP+hAICouOv+x+RHNUDMuH1v19bfcS5UNf230qMaJDnTF4r/QABAVMxYXC0+qkHiXgC85Ljbft795+N/3bN8w1a+8Q8A0sj7psD7H31KfFiD5Wjf87/8r+srpEc1SMbPXCL+wwAAUTN3zVYfjGpwmPHE0vNeACiavld6VINi7bY6ZzDP/gEg7YbkzXSe2N8iPqyBYSWePPezf1W9yB22P0kPa1BMW1gh/kMAAFFVVXeb/LAGhBlP/JfqOBed/QKgvn6A9KgGhaLpzrDCMvEfAACIqutvXMCXBHXLOd4HoGoN86SHNSjmrlbEH/wAEHW37HrQB8MaEFZizrl+/3+f9LAGRc60BeIPfACIuqkL1ssPa1BYie+d/RUAvv63S1Zu3MZH/wDAB7yPBD685xn5cQ0E+5dnHP+1NTWfUTT9pPS4BsGUeavEH/QAgFNWbWr0wbj6n2nZJ+Px+Gc+cAFQrevXSw9rEHhv/hvKm/8AwDdGTJ7HmwG7ehHQfuS6M/z+36iQHtcgmLdGFX+wAwDea8fdD4uPaxCY8cTKM3wCwHhQelyDIK94sfgDHQDwXjOXbRAf10CwEvef4QJA/7n0uPqdd+e/QeN48x8A+E3nnQEPtMoPrO/Zz793/FX1bxTdOC49sH5XvGSd+IMcAHBmGxvu9MHA+psZTxzft2/f35727F/rJz2uQXD9jfPEH+AAgDObNLtCfGCDwLSO9PnvNwAaRpH0uPpdxeYaPvsPAD7m3RPg0acPig+s3x1qS0w6/Q2AivTA+t30havFH9wAgHOrrr9dfGADoIpPAHTDdUXl4g9sAMC5jS9dIT2uvmdaiQdOuweAflR6YP2s89a/PnhgAwDO76E9+8RH1s/MuH3kvy8AdON30iPrZzctrBB/QAMAumZdza3iI+trlv3btz8CuPNjfAfAuY3k5X8ACIyCmSvlR9bnDhz4yce9jwD2kR5YP1u9pUb8wQwA6Drv0wC79zaLj6yfdX4UUDWMsdIj62fFS7n5DwAEzZab7xIfWV9rT4zlHgDnMWb6AvEHMgCge6YvrJQfWV+zp1xQrWm50iPrV5W1mjOYm/8AQOB43w2wz2zzwdD6kxlP5F5QXdeQJT20flVeUS3+IAYA9MzNd90vPrR+ZbYfybqgyjD6Sw+tXxXOWib+AAYA9MyCtTXiQ+tXzYft/heoO3Z8go8BntmwCWXiD2AAQM+MnrpQfGj9qr29/ZPv3AjoJemx9Rvu/gcAwdf05H7xsfUbM27/5r+/C0DXLenB9ZsSPv4HAIHHxwHPwLKt074LwDCkB9dvxhUvEn/gAgB6p2SpKj+4fmPZ+umvABRKD66fKJruXJ0/U/yBCwDonWGFs53mtg750fWRQ21HCk6/ALiUNwL+t6XVm8UftACA5Lin6Qnx0fUL07JPWpb1+QtOzx2+I9LD6xexJWvFH7AAgOTYaOwUH16/cC8AEhe8P0XTlksPr1/klSwWf8ACAJJj5vKN4sPrF2bcXvaBCwC1ru5/KrpxQnp8/WBowSzxBywAIDlGTJ4nPry+YNknTNv+4gcuAE69CqA/Iz2+0lZt4vP/ABA2TU8ekB9gaZa974zj3/kqQH3DKOkBljZrxXrxByoAILnqb/ue/AALO2R1XH/WC4DOVwF0/cfSIyxpQtly8QcqACC5FlXWiQ+wLPunjuNceM4LgOr6hgLpEZY0cspc8QcqACC5CstW+mCE5ZhxO/+c4//urwI046D0EEuo1nRn8NgS8QcqACC5rs4rdQ4ebhcfYqHxb+nS+HtVGcZARTeOSw9yui1TuAEQAITVfY8+JT7G6R//xHHTSgzo8gXA268CbJIe5HSbuYw3AAJAWNXs+K74IAvY0K3x77wAUNWL1YjdHXDi7GXiD1AAQGpE7Y2AZtw+5vbhbl8AeFXV1f0vdxj/KD3M6TJq6jzxBygAIDUmllWIj3LaWIk/tNr25T0a/3dfCdC04aqmvyE9zqnGNwACQLgNLSjz7oUvP86pfuZv2W+e9zP/Xb4I0PXSsH9b4OrNNeIPTgBAaj22t1l8oFM8/ifNtkRpUsb/nZR6Y06Yvytg/lpV/IEJAEitO+5pEh/plI5/3F6U1PF/9yJA02Kqpr8lPdapEFvMVwADQNhtML4tPtQpGf944nhzuz09JeP/TtWGke1eBPxWerCTbUIZnwAAgLBbsLZGfKyTP/7275vj9qiUjv87qbU3f1nR9B9Ij3YyjZo6X/yBCQBIrUmzV4sPdpId3d/27JfSMv7vXgSo6sWKri91x/NV6fFOhmvHzxJ/YAIAUmvE5LnSg52cZ/1W4nX3rxuannvub9I6/qfn3StA0fS90gPeG1V1mviDEgCQHvtaLPEB76WnWtrbvyY2/O+vWtOGKJrxlPSY98SKDVvFH5AAgPR4YPde6QHvqWazzR4svfdnraqx8VuqrtcG6Y2C89bwEUAAiIpbdz0kPeRdZyX+YMbtna3t7VdI73uXK9+588PVun69ohk17sg+6+ePD5YsXSf+gAQApMemhp3yw352b7mj/6xpJba1tB0Z2draerH0nve65YbxUbW+8QpF1290VbsXBpqiGzvdf/yIqhlNkvKLF/9S+gEJAEiPWSs2/tId2iZJ7sA/4j2zNy1bc/95dXN74saW+JGBtm1/VHqvI1VmbuxB6QckACA9MnKKH5beHfJJGbnFu6QfkACA9PDOfOndIZ+UmRvbLv2ABACkS2y79O6QT8rIiW2Vf0ACANJki/TukE9yLwDW+uABCQBIA+/Ml94d8kkZubFp0g9IAEB6ZIwpvkl6d8gnZeaUDpJ+QAIA0mNQbixTenfIJw0sKLlE+gEJAEiP/uOmfUZ6d8hHZeYU/176QQkASDH3rJfeG/JZmbmxA+IPTABASmXkxJ6R3hvyWVeNidVKPzABAKnlfexbem/IZ10x6sal0g9MAEBqDRx54yLpvSGf1W/4hCUZPnhwAgBSwzvj+w2bsFh6b8hn9R1ecOtVN0wTf4ACAFLjytHTnL5ZBdwGmN5bv+EFLQNHThF/gAIAUmPgyCL3AqCwWXpvyGf1G174Qv/sCd5HRMQfpACA5PJe/vfOePes/3fpvSEf1adP0d/0G15wwn1gOFfyawAACB3vbPfO+L5ZBW95Z7707pBP6pOdf7n3wPAMuG6y+AMVAJBcA0ZMdt455/teV/g16d0hn9Rv+ITR7zwwPFeNmS7+YAUAJEeGe6affsb3zx4/Snp3yCf1yS6cc/qDw3ujiPQDFgCQHAPcM/30M94786V3h3xSv6zCrac/ODwZY2aIP2gBAL2TkTPDef/53nd4wTbp3SGf5F4A3Pv+BwivAgBA8A1837P/ty8A7pfeHfJJ7gXAPe9/gPBeAAAItqve97v/d7lnvvTukE9yHwy3nelB0n/ERO4LAABBlOO983/S2S4AbpPeHfJJ7oOh7owPEtcVo6fKP5ABAN1y5aipZx7/znsBFNZK7w75JPcBoZztgdK/8w2B/CoAAILiqjEznH7ZZz7TT70CUFAtvTvkk97/McAz/SqAbwoEgCCInf2l/3dfASiYLb075JP6ZheMONeD5dSnAviiIADwu4HXTznnWd5pWGG29O6QT+qfPeHvz/uA8b4nYBTvBwAAv7py9Nl/7//eJ3Tjvii9O+SfLuybVfhqVx44V43my4IAwG+uevvLfs6n7/DC17wzX3p0yEf1yyp4tisPnn7DJ3B/AADwkVOf95/QpQsA76yX3hvyWX2zCoyuXQC8fRFwAxcBACDNO4v7Z3dx/E99BFCX3hvyWf2GFRR2/QLg1EXAlTfcJP7gB4Co6nzZ/1wf9zvTp7qyCguk94Z81tez8y51Hxwnu3cR4L0xkIsAAEi3rr7h731OfvP6ws9J7w35sH5ZhT/qwQPq7S8Oion/QABA2Hn3ZDnTF/x08Q2Ax6R3hnxa/+EFa3ryoPIM8G4WxFcIA0DKeF/t2/88N/k5z+//K6R3hnxan6F5X+7JrwHe82rA9Tc6vBoAAMl15agbO2/N3ovz+eTA7IKvSu8M+bi+WQV2by4A3nk1wHtzivQPDAAE3VVjpjn9syf26kx+W4f0vpDPc68wy5PwQHv7QmASFwIA0APex/sGXjc5KWexxzvbpfeFfN7lOTl/2y+r4KVkPehOXQhMPnXfgBz5HyoA8K2cU8PvnZnJPIP7Di/43dVXF31Uel8oAPU7x9cD9+oKNHuic8X1U/h6YQA4jfcG6iu83/En56X+M1wAFFZK7woFJO+eAN79olPxQHz3YmDEpM43DF45epqTkcObBgFEh3fmeWef94SoN+/q79L4ZxW+ymf/qVv1yyrYksoH5ft57xfwPtvq/UB4dxj0XiW4yr0q7vxoIRcIAILEPbO8s+vUGTa980wb6D7D9864ASke/A9eABRslN4TClgZGXkfcx88L6TzgQoASB732f+LA0aP/rj0nlAA6zt8fLH0AxgA0ENZE6ZL7wgFtwv7DS9oF38QAwC6xX32b3lnuPSIUIAbkJX/D+6D6c/SD2YAQBdlFbzSJzv/cun9oBDUJ6uwRPwBDQDommGFM6R3g0JUv+EFD4k/qAEA59Q3q/AB6b2gkOXdRapvVkFC+sENADgzd/x/wLv+KSVdMazo8/2yCv+P9IMcAPBe7vj/a7+R+ZdJ7wSFuD7DxvfpN7zgD9IPdgDAOwr+0Hd44bek94Ei0LeG5vd1H3C/kX/QA0C0eV/00ye74ArpXaAI1f/a8d/ox50CAUBQwW+8J2TSe0ARzLtHQN+sgl/I/xAAQMRkFfx8YHbBV6V3gCJcn+yiT7gXAY+I/zAAQET0HV6wJ2NU0aelz3+izvoPLyx3H5RvSv9gAEBY9c0qPN5/eMGaC7jFL/mtvkMnDOw3vOCo9A8JAIROVuGP+w6fMEj6nCc6R+pF3qsB7gP2ZfEfGAAIuL7DC1/znvUXFRV9SPp0J+pS/bMn/H2/rILb3avWN6R/gAAgcLyzM6vwtoEjx31R+jwn6lF9swq+1G94wQ4uBACgCzrPyoId3pMo6fObKCkNzC645NSvBgraxX/AAMB/nvde6vduuS59XhOlLPdB3r9vVsFG72LAe1erD37wACCtOj81lVUQd8/CDQOyJ/STPpeJ0p53H4F+WRPGuT8IW9wfiu+7FwQ/49cFAELFPdP6Di/8qfuPv+8+8dnsnXne2Sd9/hL5Lu/drt57B7xbXH5r2Pgh/bPHj+ozbPzk/tkTigDAz06dVeNHeWeXd4Z5Z5n36Sjpc5WIiIiIiIiIiIiIiIiIiIiIiIiIiIiIiIiIiIiIiIiIiIiIiIiIiIiIiIiIiIiIiIiIiIiIiIiIiIiIiIiIiIiIiIiIiIiIiIiIiIiIiIiIiIiIiIiIiIiIiIiIiIiIiIiIiIiIiIiIiIiIiIiIiIiIiIiIiIiIiIiIiIiIiIiIiIiIiIiIiIiIiIiIiIiIiIiIiIiIiIiIiIiIiIiIiIiIiIiIiIiIyP/9f75dytW83F8xAAAAAElFTkSuQmCC" vertex="1" parent="46">
                    <mxGeometry width="60" height="60" as="geometry"/>
                </mxCell>
                <mxCell id="39" value="Users" style="text;strokeColor=none;align=center;fillColor=none;html=1;verticalAlign=middle;whiteSpace=wrap;rounded=0;dashed=1;fontFamily=Georgia;fontSize=12;" vertex="1" parent="46">
                    <mxGeometry y="60" width="60" height="20" as="geometry"/>
                </mxCell>
                <mxCell id="47" value="" style="group" vertex="1" connectable="0" parent="1">
                    <mxGeometry x="50" y="124.25" width="180" height="80" as="geometry"/>
                </mxCell>
                <mxCell id="9" value="" style="sketch=0;aspect=fixed;html=1;points=[];align=center;image;fontSize=12;image=img/lib/mscae/DNS.svg;dashed=1;" vertex="1" parent="47">
                    <mxGeometry width="50" height="50" as="geometry"/>
                </mxCell>
                <mxCell id="38" value="DNS Zones" style="text;strokeColor=none;align=center;fillColor=none;html=1;verticalAlign=middle;whiteSpace=wrap;rounded=0;dashed=1;fontFamily=Georgia;fontSize=12;" vertex="1" parent="47">
                    <mxGeometry y="50" width="60" height="30" as="geometry"/>
                </mxCell>
                <mxCell id="40" value="URL =&amp;gt; ELB Endpoint" style="text;strokeColor=#314354;align=center;fillColor=#353E47;html=1;verticalAlign=middle;whiteSpace=wrap;rounded=0;dashed=1;fontFamily=Georgia;fontSize=12;fontColor=#ffffff;" vertex="1" parent="47">
                    <mxGeometry x="50" y="12.129999999999995" width="130" height="25.75" as="geometry"/>
                </mxCell>
                <mxCell id="48" value="" style="group" vertex="1" connectable="0" parent="1">
                    <mxGeometry x="570" y="228.88" width="169.68" height="244.5" as="geometry"/>
                </mxCell>
                <mxCell id="13" value="Security Group" style="text;strokeColor=none;align=center;fillColor=none;html=1;verticalAlign=middle;whiteSpace=wrap;rounded=0;dashed=1;fontFamily=Georgia;fontSize=12;" vertex="1" parent="48">
                    <mxGeometry x="23.81720243605355" y="211.4315300084531" width="122.037328136419" height="33.06846999154692" as="geometry"/>
                </mxCell>
                <mxCell id="14" value="" style="rounded=1;arcSize=10;dashed=1;strokeColor=#ff0000;fillColor=none;gradientColor=none;dashPattern=8 4;strokeWidth=2;fontFamily=Georgia;fontSize=12;" vertex="1" parent="48">
                    <mxGeometry width="169.68" height="244.5" as="geometry"/>
                </mxCell>
                <mxCell id="15" value="a" style="rounded=1;arcSize=10;dashed=1;fillColor=none;gradientColor=none;dashPattern=8 3 1 3;strokeWidth=2;fontFamily=Georgia;fontSize=12;" vertex="1" parent="48">
                    <mxGeometry x="13.996016565164393" y="37.20202874049028" width="143.07682143727163" height="141.16103127641588" as="geometry"/>
                </mxCell>
                <mxCell id="16" value="" style="sketch=0;points=[[0,0,0],[0.25,0,0],[0.5,0,0],[0.75,0,0],[1,0,0],[0,1,0],[0.25,1,0],[0.5,1,0],[0.75,1,0],[1,1,0],[0,0.25,0],[0,0.5,0],[0,0.75,0],[1,0.25,0],[1,0.5,0],[1,0.75,0]];outlineConnect=0;fontColor=#232F3E;gradientColor=#F78E04;gradientDirection=north;fillColor=#D05C17;strokeColor=#ffffff;dashed=0;verticalLabelPosition=bottom;verticalAlign=top;align=center;html=1;fontSize=12;fontStyle=0;aspect=fixed;shape=mxgraph.aws4.resourceIcon;resIcon=mxgraph.aws4.ec2;fontFamily=Georgia;" vertex="1" parent="48">
                    <mxGeometry x="53.29729403166873" y="57.66314454775994" width="64.48253349573692" height="64.48253349573692" as="geometry"/>
                </mxCell>
                <mxCell id="17" value="Tomcat Instances" style="text;strokeColor=none;align=center;fillColor=none;html=1;verticalAlign=middle;whiteSpace=wrap;rounded=0;dashed=1;fontFamily=Georgia;fontSize=12;" vertex="1" parent="48">
                    <mxGeometry x="44.203603410475054" y="122.14666103127644" width="82.66991473812425" height="24.801352493660186" as="geometry"/>
                </mxCell>
                <mxCell id="18" value="Auto Scaling group" style="text;strokeColor=none;align=center;fillColor=none;html=1;verticalAlign=middle;whiteSpace=wrap;rounded=0;dashed=1;fontFamily=Georgia;fontSize=12;" vertex="1" parent="48">
                    <mxGeometry x="37.3668014616322" y="153.561707523246" width="96.33525164433618" height="24.801352493660186" as="geometry"/>
                </mxCell>
                <mxCell id="49" value="" style="group" vertex="1" connectable="0" parent="1">
                    <mxGeometry x="930" y="124.25" width="60" height="95" as="geometry"/>
                </mxCell>
                <mxCell id="29" value="S3 Bucket" style="text;strokeColor=none;align=center;fillColor=none;html=1;verticalAlign=middle;whiteSpace=wrap;rounded=0;dashed=1;fontFamily=Georgia;fontSize=12;" vertex="1" parent="49">
                    <mxGeometry y="65" width="60" height="30" as="geometry"/>
                </mxCell>
                <mxCell id="31" value="" style="outlineConnect=0;dashed=0;verticalLabelPosition=bottom;verticalAlign=top;align=center;html=1;shape=mxgraph.aws3.bucket_with_objects;fillColor=#E05243;gradientColor=none;fontFamily=Georgia;fontSize=12;" vertex="1" parent="49">
                    <mxGeometry width="60" height="61.5" as="geometry"/>
                </mxCell>
                <mxCell id="50" value="" style="group" vertex="1" connectable="0" parent="1">
                    <mxGeometry x="842.5" y="420" width="265" height="160" as="geometry"/>
                </mxCell>
                <mxCell id="19" value="" style="sketch=0;aspect=fixed;html=1;points=[];align=center;image;fontSize=12;image=img/lib/mscae/DNS_Private_Zones.svg;dashed=1;fontFamily=Georgia;" vertex="1" parent="50">
                    <mxGeometry x="107.5" width="50" height="50" as="geometry"/>
                </mxCell>
                <mxCell id="28" value="DNS Private Zones" style="text;strokeColor=none;align=center;fillColor=none;html=1;verticalAlign=middle;whiteSpace=wrap;rounded=0;dashed=1;fontFamily=Georgia;fontSize=12;" vertex="1" parent="50">
                    <mxGeometry x="87.5" y="60" width="90" height="30" as="geometry"/>
                </mxCell>
                <mxCell id="34" value="db02 =&amp;gt; IP address&lt;br&gt;mc01 =&amp;gt; IP address&lt;br&gt;rmq01 =&amp;gt; IP address" style="text;strokeColor=#314354;align=center;fillColor=#353E47;html=1;verticalAlign=middle;whiteSpace=wrap;rounded=0;dashed=1;fontFamily=Georgia;fontSize=12;fontColor=#ffffff;" vertex="1" parent="50">
                    <mxGeometry y="100" width="265" height="60" as="geometry"/>
                </mxCell>
                <mxCell id="53" value="" style="group" vertex="1" connectable="0" parent="1">
                    <mxGeometry x="170" y="300" width="60" height="58.89999999999998" as="geometry"/>
                </mxCell>
                <mxCell id="51" value="" style="sketch=0;outlineConnect=0;fontColor=#232F3E;gradientColor=none;strokeColor=#232F3E;fillColor=#ffffff;dashed=0;verticalLabelPosition=bottom;verticalAlign=top;align=center;html=1;fontSize=12;fontStyle=0;aspect=fixed;shape=mxgraph.aws4.resourceIcon;resIcon=mxgraph.aws4.ssl_padlock;fontFamily=Georgia;" vertex="1" parent="53">
                    <mxGeometry x="10" y="18.899999999999977" width="40" height="40" as="geometry"/>
                </mxCell>
                <mxCell id="52" value="&lt;b&gt;HTTPS&lt;/b&gt;" style="text;strokeColor=none;align=center;fillColor=none;html=1;verticalAlign=middle;whiteSpace=wrap;rounded=0;dashed=1;fontFamily=Georgia;fontSize=12;" vertex="1" parent="53">
                    <mxGeometry width="60" height="21.97" as="geometry"/>
                </mxCell>
                <mxCell id="55" value="" style="html=1;labelBackgroundColor=#ffffff;startArrow=classic;startFill=1;startSize=6;endArrow=classic;endFill=1;endSize=6;jettySize=auto;orthogonalLoop=1;strokeWidth=1;dashed=1;fontSize=14;fontFamily=Georgia;entryX=0.5;entryY=1;entryDx=0;entryDy=0;exitX=0.5;exitY=0;exitDx=0;exitDy=0;" edge="1" parent="1" source="2" target="38">
                    <mxGeometry width="60" height="60" relative="1" as="geometry">
                        <mxPoint x="50" y="279.25" as="sourcePoint"/>
                        <mxPoint x="110" y="219.25" as="targetPoint"/>
                    </mxGeometry>
                </mxCell>
                <mxCell id="57" value="" style="html=1;labelBackgroundColor=#ffffff;startArrow=none;startFill=0;startSize=6;endArrow=classic;endFill=1;endSize=6;jettySize=auto;orthogonalLoop=1;strokeWidth=1;dashed=1;fontSize=14;fontFamily=Georgia;exitX=0.983;exitY=0.383;exitDx=0;exitDy=0;exitPerimeter=0;" edge="1" parent="1" source="2">
                    <mxGeometry width="60" height="60" relative="1" as="geometry">
                        <mxPoint x="110" y="310" as="sourcePoint"/>
                        <mxPoint x="270" y="333" as="targetPoint"/>
                    </mxGeometry>
                </mxCell>
                <mxCell id="62" value="" style="html=1;labelBackgroundColor=#ffffff;startArrow=none;startFill=0;startSize=6;endArrow=classic;endFill=1;endSize=6;jettySize=auto;orthogonalLoop=1;strokeWidth=1;dashed=1;fontSize=14;fontFamily=Georgia;entryX=0.444;entryY=-0.011;entryDx=0;entryDy=0;entryPerimeter=0;exitX=0.5;exitY=1;exitDx=0;exitDy=0;" edge="1" parent="1">
                    <mxGeometry width="60" height="60" relative="1" as="geometry">
                        <mxPoint x="654.8399999999999" y="477.38" as="sourcePoint"/>
                        <mxPoint x="654.96828" y="551.96675" as="targetPoint"/>
                    </mxGeometry>
                </mxCell>
                <mxCell id="61" value="" style="edgeStyle=elbowEdgeStyle;elbow=horizontal;endArrow=classic;html=1;rounded=1;endSize=8;startSize=8;fontFamily=Georgia;fontSize=12;entryX=-0.005;entryY=0.379;entryDx=0;entryDy=0;entryPerimeter=0;" edge="1" parent="1" target="16">
                    <mxGeometry width="50" height="50" relative="1" as="geometry">
                        <mxPoint x="380" y="320" as="sourcePoint"/>
                        <mxPoint x="525" y="190" as="targetPoint"/>
                        <Array as="points">
                            <mxPoint x="460" y="350"/>
                            <mxPoint x="460" y="260"/>
                        </Array>
                    </mxGeometry>
                </mxCell>
                <mxCell id="69" value="" style="edgeStyle=elbowEdgeStyle;elbow=horizontal;endArrow=classic;html=1;rounded=1;endSize=8;startSize=8;fontFamily=Georgia;fontSize=12;entryX=1;entryY=0;entryDx=0;entryDy=0;entryPerimeter=0;exitX=0.06;exitY=0.5;exitDx=0;exitDy=0;exitPerimeter=0;dashed=1;" edge="1" parent="1" source="31" target="16">
                    <mxGeometry width="50" height="50" relative="1" as="geometry">
                        <mxPoint x="780" y="340" as="sourcePoint"/>
                        <mxPoint x="830" y="290" as="targetPoint"/>
                    </mxGeometry>
                </mxCell>
            </root>
        </mxGraphModel>
    </diagram>
</mxfile>